<?xml version="1.0" encoding="utf-8"?>
<!-- Generator: Adobe Illustrator 19.0.0, SVG Export Plug-In . SVG Version: 6.00 Build 0)  -->
<svg version="1.1" id="Layer_1" xmlns="http://www.w3.org/2000/svg" xmlns:xlink="http://www.w3.org/1999/xlink" x="0px" y="0px"
	 viewBox="0 0 1742 259.5" style="enable-background:new 0 0 1742 259.5;" xml:space="preserve">
<style type="text/css">
	.st0{fill:#FFFFFF;}
</style>
<g id="XMLID_27_">
	<path id="XMLID_231_" class="st0" d="M779.5,125.4c2,1.2,2.8,1.8,3.7,2.2c20.3,8.3,28.9,24.1,28.5,45.3
		c-0.4,21.1-11.2,35.3-30.2,43.7c-11.8,5.2-24.3,7.3-37,7.4c-36.8,0.2-73.7,0-110.5,0.2c-4.7,0-6.5-1.4-6.5-6.3
		c0.1-59.3,0.1-118.7,0-178c0-4.1,1.2-6.2,5.6-6.1c35.7,0.2,71.3,0.1,107,0.7c9.2,0.2,18.6,1.9,27.5,4.6
		c25.9,7.7,38.4,27.9,34.9,54.8C800.7,108,795.1,119.7,779.5,125.4z M698,181.7c8.9-1.3,17.2-1.9,25.2-3.8c5.8-1.4,8.7-6.9,8.6-12.7
		c-0.1-6-3.2-10.7-9.4-11.9c-7.9-1.5-16-1.7-24.3-2.5C698,161.4,698,170.7,698,181.7z M697.9,110.8c8.1-1.1,15.8-1.5,23-3.4
		c6.1-1.6,8.5-7,8.1-13.9c-0.4-6.1-3.1-10.4-9.2-11.5c-7.1-1.3-14.4-1.3-21.9-1.9C697.9,90.7,697.9,99.9,697.9,110.8z"/>
	<path id="XMLID_230_" class="st0" d="M1372.2,123.5c0,2.1,0,4.2,0,6.3c0,29,0,58,0,87c0,6.7-0.2,7-7.1,7c-14.2,0-28.3-0.1-42.5,0.1
		c-4.4,0.1-6.4-1.2-6.3-5.9c0.1-59.3,0.1-118.6,0-177.9c0-4.4,1.7-5.9,6-5.8c17.7,0.1,35.3,0.1,53,0c4.2,0,6.7,1.9,8.9,5.3
		c19.3,30.3,38.8,60.6,58.2,90.9c0.9,1.5,2,2.9,4.2,4c0.1-1.9,0.2-3.8,0.2-5.6c0-29.2,0-58.3,0-87.5c0-6.7,0.3-7.1,7-7.1
		c14.2,0,28.3,0.1,42.5-0.1c4.7-0.1,6.5,1.6,6.5,6.4c-0.1,59-0.1,118,0,177c0,4.8-1.7,6.4-6.4,6.4c-17.2-0.2-34.3-0.2-51.5,0
		c-4.5,0-7.4-1.6-9.8-5.4c-19.2-30.2-38.6-60.3-58-90.4c-1.1-1.6-2.2-3.2-3.3-4.8C1373.3,123.2,1372.8,123.4,1372.2,123.5z"/>
	<path id="XMLID_227_" class="st0" d="M1619.8,229.5c-12.8-2.5-26.1-3.8-38.5-7.7c-24.8-7.7-42.1-24.5-51.8-48.6
		c-12-29.8-11.9-59.9,1.3-89.3c11.1-24.9,30.4-40.9,56.5-48.4c22.9-6.6,46.1-6.6,69,0c28.1,8.1,47.7,26,58,53.4
		c11.2,29.6,10,59.3-3.7,87.8c-15.4,32-42.6,47.3-77.2,50.7c-3.1,0.3-6.3,0.4-9.5,0.6c-1.3,0.1-2.7,0-4,0
		C1619.9,228.5,1619.9,229,1619.8,229.5z M1621.7,92.1c-23.1-0.1-38.3,14.8-38.4,37.4c-0.1,22.5,14.8,37.2,37.9,37.2
		c22.9,0,38-14.9,38.1-37.7C1659.4,106.9,1644.4,92.1,1621.7,92.1z"/>
	<path id="XMLID_224_" class="st0" d="M1100,166.5c0,19,0,38,0,57.3c-21.3,0-42.2,0-63.6,0c0-62.8,0-125.6,0-189
		c1.3-0.1,2.7-0.3,4.1-0.3c31.3-0.1,62.6-0.1,94-0.2c17.2,0,33.5,3.1,47.6,13.6c20.2,15.1,29,42.7,22.1,69.1
		c-5,19.1-15.8,33.5-34.5,42.5c12.5,21.2,24.8,42.2,37.5,63.8c-1.8,0.2-2.9,0.6-4.1,0.6c-18.3,0-36.7-0.1-55,0.1
		c-3.2,0-5.1-0.9-6.8-3.8c-10.1-16.7-20.5-33.1-30.4-49.9C1108.2,165.6,1105,165.1,1100,166.5z M1100,117.9
		c9.2-0.6,18.2-0.6,26.9-2.1c6.9-1.1,10.2-6.6,10.4-14c0.2-8.3-2.6-14.1-9.7-15.4c-9-1.7-18.2-1.7-27.6-2.5
		C1100,95.8,1100,106.2,1100,117.9z"/>
	<path id="XMLID_221_" class="st0" d="M569.8,159.8c12.6,21.4,24.9,42.4,37.7,64.3c-3.9,0-6.8,0-9.7,0c-16.3,0-32.7-0.1-49,0.1
		c-3.8,0-6-1.1-8-4.4c-9.8-16.4-20.1-32.6-29.8-49.1c-2.7-4.6-5.8-5.8-11.1-4.2c0,19,0,38,0,57.4c-21.5,0-42.4,0-63.6,0
		c0-63,0-125.9,0-188.9c0.7-0.2,1.4-0.4,2-0.4c34.2,0,68.3-0.4,102.5,0.1c21.4,0.3,40.2,7.7,53.4,25.6
		c22.8,30.7,13.1,80.9-21.8,98.1C571.7,158.7,571,159.1,569.8,159.8z M500,84.2c0,11.6,0,22.1,0,33.4c8.6-0.4,16.8-0.2,24.8-1.3
		c8.3-1.1,12.4-6.8,12.4-15.5c0-8.6-4.3-14.5-12.5-15.5C516.7,84.5,508.6,84.6,500,84.2z"/>
	<path id="XMLID_220_" class="st0" d="M216.2,96.4c-11.8,1.7-23.1,3.3-34.5,4.9c-6.8,1-13.5,2.1-20.3,2.7c-1.8,0.2-4.5-0.5-5.5-1.8
		c-13.1-16.7-39.7-17.3-54.6-9.8c-16.1,8.1-24.8,27.5-21.1,47.2c3,15.8,11.1,27.7,27.1,32c16.6,4.4,32.4,2.9,45.6-9.9
		c1-1,1.8-2.2,3.3-4c-9.6,0-18.1,0-27.1,0c0-12.8,0-25.2,0-37.8c30.4,0,60.7,0,91.5,0c0.4,12.6-0.2,25-3.1,37.2
		c-10.7,44.5-44,71.7-89.8,73.4c-16.5,0.6-32.7-0.7-48.2-6.4c-24.9-9.1-42.2-26.4-51.5-51.1c-11.2-29.6-10.9-59.4,1.6-88.6
		C40.1,60.2,58,43.6,82.9,35.5c29.2-9.5,58.5-8.9,87,3.1c23.5,9.9,38.6,27.8,45.3,52.5C215.6,92.7,215.8,94.3,216.2,96.4z"/>
	<path id="XMLID_217_" class="st0" d="M319,35.1c10.2,0,20.3,0.1,30.5-0.1c4.3-0.1,6.7,1.4,8.2,5.5c21.4,59.4,42.8,118.7,64.3,178
		c1.7,4.8,1.2,5.6-3.8,5.6c-18.2,0-36.3,0-54.5,0.1c-3.7,0-5.8-1.5-6.8-5.2c-1.2-4.5-2.7-8.9-4.1-13.4c-1-3.1-2.9-4.6-6.3-4.6
		c-18.8,0.1-37.7,0.1-56.5,0c-3.6,0-5.6,1.7-6.6,4.9c-1.4,4.5-2.8,8.9-4.1,13.4c-1,3.4-3,4.9-6.5,4.9c-18.3-0.1-36.7-0.1-55,0
		c-4.4,0-5.1-1.6-3.7-5.5c22.1-59.5,44.1-118.9,66-178.4c1.4-3.9,3.8-5.4,7.9-5.3C298.3,35.2,308.6,35.1,319,35.1z M319.1,97.9
		c-1,1.2-1.5,1.6-1.6,2c-4.8,15.4-9.6,30.8-14.4,46.2c-1,3.2,0.4,4.7,3.7,4.7c7.7,0,15.3,0,23,0c3.8,0,5.1-1.6,3.9-5.4
		c-2.6-8.2-5-16.6-7.5-24.8C323.8,113.4,321.6,106.1,319.1,97.9z"/>
	<path id="XMLID_214_" class="st0" d="M990.4,224.2c-8.8,0-17.7-0.2-26.5,0.1c-4.2,0.1-6.5-1.6-7.5-5.6c-1.1-4.3-2.6-8.6-3.9-12.9
		c-0.9-3.2-2.9-4.6-6.2-4.6c-19,0-38,0.1-57,0c-3.4,0-5.2,1.8-6.1,4.8c-1.4,4.6-2.4,9.4-4.4,13.8c-0.9,1.9-3.7,4.2-5.6,4.3
		c-18.7,0.3-37.3,0.2-56,0.2c-4.4,0-4.8-1-2.9-6.3c12.7-34.2,25.3-68.4,38-102.6c9.1-24.5,18.2-49,27.1-73.6
		c1.7-4.8,4.1-6.8,9.4-6.7c19.8,0.3,39.7,0.3,59.5,0c5.9-0.1,8.1,2.4,9.9,7.5c18.9,52.7,37.9,105.2,56.9,157.8
		c2.2,6.1,4.5,12.2,6.7,18.3c1.7,4.8,1.2,5.6-3.8,5.6C1008.7,224.3,999.6,224.2,990.4,224.2C990.4,224.2,990.4,224.2,990.4,224.2z
		 M919.1,98.8c-0.5,0-1.1,0-1.6-0.1c-5,16.1-10,32.3-14.7,48.5c-0.2,0.8,2.1,3.4,3.3,3.5c8,0.3,16,0.2,24,0.1c3.2,0,4.6-1.5,3.5-4.8
		c-1.6-4.9-3-9.9-4.5-14.8C925.7,120.3,922.4,109.6,919.1,98.8z"/>
	<path id="XMLID_213_" class="st0" d="M1287.7,128.9c0,29.3,0,58.6,0,88c0,6.4-0.5,6.8-6.8,6.9c-15,0-30,0-45,0
		c-6,0-6.7-0.7-6.7-6.6c0-58.8,0-117.6,0-176.4c0-6,0.6-6.6,6.6-6.6c14.8,0,29.7,0,44.5,0c7,0,7.4,0.4,7.4,7.3
		C1287.7,70.6,1287.7,99.7,1287.7,128.9z"/>
</g>
</svg>
