<?xml version="1.0" encoding="iso-8859-1"?>
<!-- Generator: Adobe Illustrator 19.0.0, SVG Export Plug-In . SVG Version: 6.00 Build 0)  -->
<svg xmlns="http://www.w3.org/2000/svg" xmlns:xlink="http://www.w3.org/1999/xlink" version="1.1" id="Capa_1" x="0px" y="0px" viewBox="0 0 470.769 470.769" style="enable-background:new 0 0 470.769 470.769;" xml:space="preserve" width="512px" height="512px">
<g>
	<g>
		<path d="M104.314,102.185c-0.8-1.6-1.6-2.4-2.4-4c-8-6.4-22.4-8.8-33.6-9.6c-0.8,0-0.8,0-1.6,0h-0.8h-1.6c-0.8,0-0.8,0-1.6,0    c-11.2,0.8-25.6,2.4-33.6,9.6c-0.8,0.8-2.4,2.4-2.4,4l-26.4,86.4c-0.8,2.4,0,4.8,1.6,7.2c1.6,2.4,4,3.2,6.4,3.2h16.8v18.4    c-4.8,2.4-8,8-8,13.6c0,8.8,7.2,16,16,16c8.8,0,16-7.2,16-16c0-5.6-3.2-11.2-8-13.6v-18.4h16v167.2h-31.2c-4.8,0-8,3.2-8,8    s3.2,8,8,8h77.6c4.8,0,8-3.2,8-8s-3.2-8-8-8h-31.2v-167.2h49.6v-0.8c2.4,0,4.8-0.8,6.4-3.2c1.6-2.4,1.6-4.8,1.6-7.2    L104.314,102.185z M18.714,182.184l21.6-72c4-2.4,13.6-4,23.2-4h0.8h0.8h0.8c10.4,0,19.2,2.4,23.2,4l21.6,72H18.714z" fill="#cf0c1d"/>
	</g>
</g>
<g>
	<g>
		<path d="M453.914,278.184h-4v-42.4c0-25.6-15.2-41.6-41.6-41.6h-71.2c-15.2,0-26.4,5.6-33.6,14.4c-7.2-9.6-18.4-14.4-33.6-14.4    h-71.2c-25.6,0-41.6,15.2-41.6,41.6v42.4h-4c-9.6,0-17.6,8-17.6,17.6v44c0,9.6,8,17.6,17.6,17.6h4v16c0,4.8,3.2,8,8,8s8-3.2,8-8    v-16h260v16c0,4.8,3.2,8,8,8s8-3.2,8-8v-16h4c9.6,0,17.6-8,17.6-17.6v-44C471.514,286.184,463.514,278.184,453.914,278.184z     M311.514,235.785c0-17.6,8.8-25.6,25.6-25.6h71.2c16.8,0,25.6,8,25.6,25.6v42.4h-122.4V235.785z M173.114,235.785    c0-16.8,8-25.6,25.6-25.6h71.2c16.8,0,25.6,8,25.6,25.6v42.4h-122.4V235.785z M455.514,339.785c0,0.8-0.8,1.6-1.6,1.6h-300    c-0.8,0-1.6-0.8-1.6-1.6v-44c0-0.8,0.8-1.6,1.6-1.6h300c0.8,0,1.6,0.8,1.6,1.6V339.785z" fill="#cf0c1d"/>
	</g>
</g>
<g>
	<g>
		<circle cx="203.514" cy="245.385" r="8" fill="#cf0c1d"/>
	</g>
</g>
<g>
	<g>
		<circle cx="265.914" cy="245.385" r="8" fill="#cf0c1d"/>
	</g>
</g>
<g>
	<g>
		<circle cx="341.114" cy="245.385" r="8" fill="#cf0c1d"/>
	</g>
</g>
<g>
	<g>
		<circle cx="404.314" cy="245.385" r="8" fill="#cf0c1d"/>
	</g>
</g>
<g>
</g>
<g>
</g>
<g>
</g>
<g>
</g>
<g>
</g>
<g>
</g>
<g>
</g>
<g>
</g>
<g>
</g>
<g>
</g>
<g>
</g>
<g>
</g>
<g>
</g>
<g>
</g>
<g>
</g>
</svg>
