<?xml version="1.0" encoding="utf-8"?>
<!-- Generator: Adobe Illustrator 19.0.0, SVG Export Plug-In . SVG Version: 6.00 Build 0)  -->
<svg version="1.1" id="Capa_1" xmlns="http://www.w3.org/2000/svg" xmlns:xlink="http://www.w3.org/1999/xlink" x="0px" y="0px"
	 viewBox="-298 145 341 512" style="enable-background:new -298 145 341 512;" xml:space="preserve">
<style type="text/css">
	.st0{fill:#CF0C1D;}
</style>
<g>
	<path class="st0" d="M-19.5,145h-215c-20.7,0-37.6,16.9-37.6,37.6v436.8c0,20.7,16.9,37.6,37.6,37.6h214.9
		c20.7,0,37.6-16.9,37.6-37.6V182.6C18.1,161.9,1.2,145-19.5,145z M-255,213.3H1v324.3h-256V213.3z M-234.5,162.1h214.9
		c11.3,0,20.5,9.2,20.5,20.5v13.6h-256v-13.6C-255,171.3-245.8,162.1-234.5,162.1z M-19.5,639.9h-215c-11.3,0-20.5-9.2-20.5-20.5
		v-64.8H1v64.8C1,630.7-8.2,639.9-19.5,639.9z"/>
	<path class="st0" d="M-127,563.1c-18.8,0-34.1,15.3-34.1,34.1c0,18.8,15.3,34.1,34.1,34.1c18.8,0,34.1-15.3,34.1-34.1
		C-92.9,578.4-108.2,563.1-127,563.1z M-127,614.3c-9.4,0-17.1-7.7-17.1-17.1c0-9.4,7.7-17.1,17.1-17.1s17.1,7.7,17.1,17.1
		C-109.9,606.7-117.6,614.3-127,614.3z"/>
	<path class="st0" d="M-161.1,187.7h34.1c4.7,0,8.5-3.8,8.5-8.5s-3.8-8.5-8.5-8.5h-34.1c-4.7,0-8.5,3.8-8.5,8.5
		S-165.9,187.7-161.1,187.7z"/>
	<path class="st0" d="M-101.4,187.7h8.5c4.7,0,8.5-3.8,8.5-8.5s-3.8-8.5-8.5-8.5h-8.5c-4.7,0-8.5,3.8-8.5,8.5
		S-106.1,187.7-101.4,187.7z"/>
</g>
</svg>
